<svg height="18" viewBox="0 0 18 18" width="18" xmlns="http://www.w3.org/2000/svg"><path d="m17 0h-16a1 1 0 0 0 -1 1v16a1 1 0 0 0 1 1h16a1 1 0 0 0 1-1v-16a1 1 0 0 0 -1-1zm-14 16a1 1 0 0 1 0-2 1 1 0 0 1 0 2zm0-4a.945.945 0 0 1 -1-1 .945.945 0 0 1 1-1 .945.945 0 0 1 1 1 .945.945 0 0 1 -1 1zm0-4a.945.945 0 0 1 -1-1 .945.945 0 0 1 1-1 .945.945 0 0 1 1 1 .945.945 0 0 1 -1 1zm0-4a.945.945 0 0 1 -1-1 .945.945 0 0 1 1-1 .945.945 0 0 1 1 1 .945.945 0 0 1 -1 1zm12 12h-8a1 1 0 0 1 0-2h8a1 1 0 0 1 0 2zm0-4h-8a1 1 0 0 1 0-2h8a1 1 0 0 1 0 2zm0-4h-8a1 1 0 0 1 0-2h8a1 1 0 0 1 0 2zm0-4h-8a1 1 0 0 1 0-2h8a1 1 0 0 1 0 2z" fill="#494c4e"/></svg>